<svg width="22" height="20" viewBox="0 0 22 20" fill="none" xmlns="http://www.w3.org/2000/svg">
<path id="BlueSky" d="M20.9945 9.63223L16.8438 8.07676V3.41465C16.8438 2.77012 16.4441 2.19434 15.8383 1.9666L11.5414 0.355273C11.1934 0.22207 10.8066 0.22207 10.4543 0.355273L6.15742 1.9666C5.55156 2.19434 5.15195 2.77012 5.15195 3.41465V8.07676L1.00117 9.63223C0.399609 9.85996 0 10.4357 0 11.0803V15.8111C0 16.3955 0.330859 16.9326 0.855078 17.1947L5.15195 19.3432C5.58594 19.5623 6.10156 19.5623 6.53555 19.3432L11 17.1088L15.4645 19.3432C15.8984 19.5623 16.4141 19.5623 16.848 19.3432L21.1449 17.1947C21.6691 16.9326 22 16.3955 22 15.8111V11.0803C22 10.4357 21.6004 9.85996 20.9945 9.63223ZM15.3828 8.11113L11.7305 9.48184V6.55137L15.3828 4.96152V8.11113ZM6.61719 3.35449L11 1.71309L15.3828 3.35449V3.38027L11 5.15918L6.61719 3.38027V3.35449ZM10.2266 15.8627L6.57422 17.6889V14.29L10.2266 12.6229V15.8627ZM10.2266 11.0502L5.84375 12.8291L1.46094 11.0502V11.0244L5.84375 9.38301L10.2266 11.0244V11.0502ZM20.5391 15.8627L16.8867 17.6889V14.29L20.5391 12.6229V15.8627ZM20.5391 11.0502L16.1562 12.8291L11.7734 11.0502V11.0244L16.1562 9.38301L20.5391 11.0244V11.0502Z" fill="#373D5B"/>
</svg>
