<?xml version="1.0" encoding="utf-8"?>
<!-- Generator: Adobe Illustrator 27.8.1, SVG Export Plug-In . SVG Version: 6.00 Build 0)  -->
<svg version="1.1" id="Layer_1" xmlns="http://www.w3.org/2000/svg" xmlns:xlink="http://www.w3.org/1999/xlink" x="0px" y="0px"
	 viewBox="0 0 1046.2 310.1" style="enable-background:new 0 0 1046.2 310.1;" xml:space="preserve">
<style type="text/css">
	.st0{fill:#383D58;}
</style>
<g>
	<g>
		<g>
			<path class="st0" d="M1045.4,201.5L1020,59c-4.7-26.3-27.5-45.4-54.2-45.4H730.6c-26.7,0-49.5,19.1-54.2,45.4l-13,73.1
				c14.3,2.3,25.2,14.7,25.3,29.6l0,0v0c0,0,0,0,0,0s0,0,0,0v14.9c10.2-7.9,23.5-12.4,38.7-12.4c13.4,0,25.2,3.4,34.7,9.4v-7.3v-2
				h73.4c0.6,0,1.2,0,1.9,0c0.5,0,1,0,1.5,0h0.4v0c13.4,0.4,23.9,5.4,30.9,14.2c8.6-8.9,21.9-14.3,37.6-14.3
				c12.7,0,24.3,2.7,31.6,7.4l7.4,4.7v37.9l6.8,15.3c7.8,17.5,25.1,28.7,44.2,28.7C1027.9,258.4,1050.7,231.2,1045.4,201.5z
				 M791.5,97.2H764V125h-16V97.2h-27.5V81.9h27.5V54.1h16v27.8h27.5V97.2z M914.8,91.3c0,3.2-0.7,6-2.1,8.3
				c-1.4,2.3-3.3,4.1-5.6,5.3c-2.4,1.2-5.1,1.8-8.1,1.8c-3,0-5.7-0.6-8.1-1.8c-2.4-1.2-4.3-3-5.6-5.3c-1.4-2.3-2.1-5.1-2.1-8.3v-1
				c0-3.2,0.7-6,2.1-8.3c1.4-2.3,3.3-4.1,5.6-5.3c2.4-1.2,5.1-1.8,8.1-1.8c3,0,5.7,0.6,8.1,1.8c2.4,1.2,4.3,3,5.6,5.3
				c1.4,2.3,2.1,5.1,2.1,8.3V91.3z M952.4,125.5c0,3.3-0.7,6.1-2.1,8.4c-1.4,2.3-3.2,4.1-5.6,5.3c-2.4,1.2-5,1.8-7.9,1.8
				c-2.9,0-5.3-0.5-7.4-1.5c-2.1-1-3.7-2.4-5-4.2c-1.3-1.8-2.1-3.7-2.5-6l7.4-1.6c0.2,1.2,0.5,2.3,1.1,3.3c0.6,1,1.4,1.7,2.4,2.3
				c1,0.6,2.3,0.8,3.8,0.8c1.5,0,2.9-0.3,4.2-1c1.2-0.7,2.2-1.7,2.9-3c0.7-1.3,1.1-2.9,1.1-4.8v-0.6c0-1.9-0.4-3.5-1.1-4.8
				c-0.7-1.3-1.7-2.3-2.9-3c-1.2-0.7-2.6-1-4.2-1c-2.3,0-4.1,0.6-5.2,1.8c-1.2,1.2-1.9,2.8-2.3,4.7l-7.4-1.8
				c0.5-2.1,1.4-4.1,2.7-5.8c1.3-1.8,2.9-3.1,5-4.2c2.1-1,4.5-1.5,7.4-1.5c2.9,0,5.5,0.6,7.9,1.8c2.4,1.2,4.2,3,5.6,5.3
				c1.4,2.3,2.1,5.1,2.1,8.4V125.5z M949.7,64.3c-1.3,1.8-2.9,3.1-5,4.2c-2.1,1-4.5,1.5-7.4,1.5c-2.9,0-5.5-0.6-7.9-1.8
				c-2.4-1.2-4.2-3-5.6-5.3c-1.4-2.3-2.1-5.1-2.1-8.4v-0.8c0-3.3,0.7-6.1,2.1-8.4c1.4-2.3,3.2-4.1,5.6-5.3c2.4-1.2,5-1.8,7.9-1.8
				c2.9,0,5.3,0.5,7.4,1.5c2.1,1,3.7,2.4,5,4.2c1.3,1.8,2.1,3.7,2.5,6l-7.4,1.6c-0.2-1.2-0.5-2.3-1.1-3.3c-0.6-1-1.4-1.7-2.4-2.3
				c-1-0.6-2.3-0.8-3.8-0.8c-1.5,0-2.9,0.3-4.2,1c-1.2,0.7-2.2,1.7-2.9,3c-0.7,1.3-1.1,2.9-1.1,4.8v0.6c0,1.9,0.4,3.5,1.1,4.8
				c0.7,1.3,1.7,2.3,2.9,3c1.2,0.7,2.6,1,4.2,1c2.3,0,4.1-0.6,5.2-1.8c1.2-1.2,1.9-2.8,2.3-4.7l7.4,1.8
				C951.8,60.6,950.9,62.5,949.7,64.3z M990.9,91.3c0,3.2-0.7,6-2.1,8.3c-1.4,2.3-3.3,4.1-5.6,5.3c-2.4,1.2-5.1,1.8-8.1,1.8
				c-3,0-5.7-0.6-8.1-1.8c-2.4-1.2-4.3-3-5.6-5.3c-1.4-2.3-2.1-5.1-2.1-8.3v-1c0-3.2,0.7-6,2.1-8.3c1.4-2.3,3.3-4.1,5.6-5.3
				c2.4-1.2,5.1-1.8,8.1-1.8c3,0,5.7,0.6,8.1,1.8c2.4,1.2,4.3,3,5.6,5.3c1.4,2.3,2.1,5.1,2.1,8.3V91.3z"/>
		</g>
	</g>
	<path class="st0" d="M188.4,122.8c-8.7,6.1-20.2,9-34.3,9c-35.8,0-63.6-22.1-63.6-57.8c0-35.9,27.9-57.8,63.6-57.8
		c14.2,0,25.7,2.7,34.3,8.8v23.5c-6.6-6-17.6-10.9-30.1-10.9c-21.4,0-37.7,14.5-37.7,36.4c0,21.7,16.2,36.4,37.7,36.4
		c12.4,0,23.5-5,30.1-10.9V122.8z M260.4,74.6c-2-1.7-6.5-3.8-11.2-3.8c-0.5,0-0.9,0-1.4,0.2c-8.5,0.8-14.3,6.6-14.3,18.9V129H207
		V77.1c0-11.7-1.1-20-9.8-22.2v-3.5h33.7l0.8,9c4.1-6.8,10.7-10.7,18.7-10.7c7.7,0,12.1,2.5,15.1,5.2L260.4,74.6z M348.6,95.7h-53.1
		c1.6,9.5,7.6,15,16.1,16.1c2,0.2,4.1,0.3,6.1,0.3c8.4,0,16.5-2.2,24.7-7.7l3.6,17c-6.1,4.6-16.2,9.6-35,9.6
		c-24.7,0-43.3-14.7-43.3-40.8s18.4-40.8,43.3-40.8c24.7,0,37.8,15.9,37.8,40.8C348.9,92.1,348.9,94,348.6,95.7z M323.4,81.4
		c-0.5-9.8-4.6-15.8-13.5-15.8c-7.6,0-13.4,5.5-14.8,15.8H323.4z M489.4,51.4L462,129h-25l-10.7-33.9c-0.8-2.2-2.7-11.2-3-13.4
		c-0.2,2.2-2,10.7-2.8,13.5L410.2,129h-24.6C367,77.4,367,77.1,367,77.1c-4.3-12-9.1-20.6-15.9-22.2v-3.5h34.3
		c10.1,38,10.1,38.3,10.1,38.3c0.3,1.3,2.7,10.7,2.8,12.9c0.2-2.2,2.4-11.7,2.8-13.1l12.6-38.1h22.1c11.3,38,11.3,38.3,11.3,38.3
		c0.5,1.3,2.7,10.7,2.8,13.1c0.3-2.4,2.5-11.8,3-13.2l10.6-38.1H489.4z M633.3,129h-32l-5.5-6.5c-8.7,5.7-19.5,7.9-31.2,8.2
		c-0.5,0-0.9,0-1.4,0c-15.8,0-38.4-7.1-38.4-33.2c0-15.4,9.6-24.4,20.6-30.1c-4.4-6-7.9-12.8-7.9-21.9c-0.2-20.8,16.4-29.5,32-29.5
		c15.4,0,31.2,7.1,31.2,26.3c0,13.2-11,21.7-20.6,27.3l20,22.2c2-4.6,2.8-9.8,2.8-14.8c0-4.6-0.6-9.1-1.7-13.2h23.5
		c0.6,4.4,0.9,8.5,0.9,12.4c0,13.7-4.1,24.3-10.6,32.3L633.3,129z M557.8,82c-3.3,3.2-5.2,6.9-5.2,12.4c0,0.5,0,0.8,0,1.3
		c0.5,9.6,8,15.6,16.7,15.8h1.3c0.2,0,0.3,0,0.5,0c3.8,0,7.4-0.8,10.9-2.4L557.8,82z M570.4,33.3c-4.9,0-8.7,4.1-8.7,9.9
		c0,4.7,2.5,8.5,6.5,13.1c7.9-4.3,10.1-9,10.1-14C578.3,38.1,575.9,33.3,570.4,33.3z M114,253.8c-8.7,6.1-20.2,9-34.3,9
		c-35.8,0-63.6-22.1-63.6-57.8c0-35.9,27.9-57.8,63.6-57.8c14.2,0,25.7,2.7,34.3,8.8v23.5c-6.6-6-17.6-10.9-30.1-10.9
		c-21.4,0-37.7,14.5-37.7,36.4c0,21.7,16.2,36.4,37.7,36.4c12.4,0,23.5-5,30.1-10.9V253.8z M167.9,262c-24.7,0-43.5-16.2-43.5-40.8
		c0-24.7,18.7-40.8,43.8-40.8c25.4,0,43.8,15.6,43.8,40.8C212,242.7,196.9,262,167.9,262z M168.2,200.5c-9.6,0-16.4,8.3-16.4,20.6
		c0,12.1,6.8,20.6,16.4,20.6s16.4-8.5,16.4-20.6C184.6,208.9,177.8,200.5,168.2,200.5z M351,259.9h-26.5v-49.2c0-2.7-0.2-6-2.7-8.5
		c-1.6-1.6-3.8-2.5-6.6-2.5c-5,0-9.5,3.2-12.1,8.3c0,0.9,0,1.9,0,2.8v49h-26.5v-49.2c0-2.7-0.2-6-2.7-8.5c-1.6-1.6-3.8-2.5-6.6-2.5
		c-4.9,0-9.3,3.2-12,8.2v52h-26.5v-51.8c0-11.7-1.1-20-9.9-22.2v-3.5h33.7l0.9,10.2c5.4-9,14.2-12.1,23-12.1
		c12.4,0,20,4.9,23.6,13.9c5.8-10.4,15-13.9,24.3-13.9c18.7,0,26.5,11.3,26.5,30.4V259.9z M417.6,261.8c-0.5,0.2-0.9,0.2-1.6,0.2
		c-5.2,0-10.7-0.8-16.4-3.5v35.6h-26.5v-86c0-11.7-1.1-20-9.8-22.2v-3.5h33.7l0.5,6.3c7.1-6.3,14-7.7,21.3-8.2c0.6,0,1.4-0.2,2-0.2
		c15.8,0,32.5,12.4,32.5,40.8C453.4,245.9,436,261.3,417.6,261.8z M411,200.2c-3.9,0-7.9,1.6-11.3,4.1v36.2c3,1.3,6.1,2,9.5,2
		c0.5,0,0.8,0,1.3-0.2c9.8-0.5,15.6-8.4,15.6-21.3C425.9,208.2,420.9,200.2,411,200.2z M536.9,256.8c-5.5,3.8-13.1,5-17.5,5
		c-6.1,0-12-2-14.5-8.2c-4.7,5.8-14.8,8.2-20.6,8.2c-12,0-25.5-4.9-25.5-22.1c0-20,22.4-27.7,43-28.4v-3.3c0-5.8-4.3-8.7-10.9-8.7
		c-8.2,0-17.6,2.8-26.3,9.6v-20.3c6.9-4.3,18.7-8.2,32.6-8.2c15.8,0,30.9,4.6,30.9,30.6v28.5c0,2.7,0.6,3.8,1.9,4.4
		c0.5,0.2,0.9,0.2,1.6,0.2c1.6,0,3.8-0.5,5.4-1.7V256.8z M501.7,224.6c-10.4,0.2-17.3,4.3-17.3,11.5c0,5.7,4.3,7.7,7.9,7.7
		c3.6,0,7.7-1.6,9.5-4.9V224.6z M627.1,259.9h-26.5v-48.7c0-2.2-0.3-6-3-8.7c-1.6-1.6-3.8-2.4-6.6-2.4c-5.4,0-10.4,3.3-13.4,8.7v51
		h-26.5v-51.8c0-11.7-1.1-20-9.8-22.2v-3.5h33.7l0.9,11.2c5.4-9.8,15.4-13.2,24.6-13.2c18.7,0,26.5,11.3,26.5,30.4V259.9z
		 M672.7,259.9h-26.3v-51.8c0-11.8-1.1-20-9.9-22.2v-3.5h36.2V259.9z M658.3,175.8c-7.7,0-13.9-6.3-13.9-14
		c0-7.6,6.1-13.9,13.9-13.9s13.9,6.3,13.9,13.9C672.2,169.5,666.1,175.8,658.3,175.8z M727,262c-24.7,0-43.5-16.2-43.5-40.8
		c0-24.7,18.7-40.8,43.8-40.8c25.4,0,43.8,15.6,43.8,40.8C771.1,242.7,756,262,727,262z M727.3,200.5c-9.6,0-16.4,8.3-16.4,20.6
		c0,12.1,6.8,20.6,16.4,20.6s16.4-8.5,16.4-20.6C743.7,208.9,736.9,200.5,727.3,200.5z M863.8,259.9h-26.5v-48.7c0-2.2-0.3-6-3-8.7
		c-1.6-1.6-3.8-2.4-6.6-2.4c-5.4,0-10.4,3.3-13.4,8.7v51h-26.5v-51.8c0-11.7-1.1-20-9.8-22.2v-3.5h33.7l0.9,11.2
		c5.4-9.8,15.4-13.2,24.6-13.2c18.7,0,26.5,11.3,26.5,30.4V259.9z M934,238c-1.1,14.5-14.5,23.9-32.6,23.9c-11.5,0-18.7-1.7-25-6
		v-23c6.9,5.7,13.7,8.8,21.1,9.5c0.9,0.2,1.7,0.2,2.5,0.2c5.8,0,8.5-2,8.5-5.7v-0.2c0-0.2,0-0.2,0-0.2c0-3.3-3-4.9-8.3-7.1
		c-4.6-1.7-9.3-3.5-13.2-5.5c-6.6-3.5-11.2-9.6-11.2-18.6c0-1.4,0.2-3,0.3-4.6c2.4-14.2,17-20.5,31.7-20.5c11,0,19.1,2.4,23,4.9
		v20.2c-4.9-3.5-10.9-6-18.9-6.1h-0.6c-0.2,0-0.3,0-0.5,0c-5.4,0-8.5,2-9,4.1c0,0.3-0.2,0.6-0.2,0.9c0,3,3.5,4.4,8.7,6.5
		c3.9,1.6,8.5,3.5,12.6,5.4c4.3,2,11.3,7.2,11.3,19.2C934.2,236.1,934.2,237.1,934,238z"/>
</g>
</svg>
