<svg width="24" height="21" viewBox="0 0 24 21" fill="none" xmlns="http://www.w3.org/2000/svg">
<path id="Vector" d="M24 1.69231C24 0.75625 23.2339 0 22.2857 0H1.71428C0.766071 0 0 0.75625 0 1.69231C0 2.62837 0.766071 3.38462 1.71428 3.38462H22.2857C23.2339 3.38462 24 2.62837 24 1.69231ZM24 10.1538C24 9.21779 23.2339 8.46154 22.2857 8.46154H1.71428C0.766071 8.46154 0 9.21779 0 10.1538C0 11.0899 0.766071 11.8462 1.71428 11.8462H22.2857C23.2339 11.8462 24 11.0899 24 10.1538ZM0 18.6154C0 19.5514 0.766071 20.3077 1.71428 20.3077H22.2857C23.2339 20.3077 24 19.5514 24 18.6154C24 17.6793 23.2339 16.9231 22.2857 16.9231H1.71428C0.766071 16.9231 0 17.6793 0 18.6154Z" fill="#373D5B"/>
</svg>
